<svg xmlns="http://www.w3.org/2000/svg" version="1.1" xmlns:xlink="http://www.w3.org/1999/xlink" xmlns:svgjs="http://svgjs.com/svgjs" width="1000" height="1000"><rect width="1000" height="1000" rx="150" ry="150" fill="#929292"></rect><g transform="matrix(1,0,0,1,0,0)"><svg xmlns="http://www.w3.org/2000/svg" version="1.1" xmlns:xlink="http://www.w3.org/1999/xlink" xmlns:svgjs="http://svgjs.com/svgjs" width="677pt" height="677pt"><svg width="677pt" height="677pt" viewBox="0 0 677 677" version="1.1" xmlns="http://www.w3.org/2000/svg">
<g id="#000000ff">
<path fill="#000000" opacity="1.00" d=" M 174.77 53.77 C 236.35 16.62 310.97 1.24 382.16 11.94 C 435.80 19.74 487.33 41.58 530.14 74.84 C 581.61 114.26 620.65 169.45 641.32 230.86 C 656.79 276.31 662.65 325.07 657.99 372.87 C 653.61 417.21 640.71 460.74 619.77 500.09 C 627.98 505.74 633.20 514.84 635.20 524.49 C 639.03 542.70 634.65 562.14 624.74 577.74 C 612.49 597.15 591.03 608.27 569.69 614.84 C 562.81 629.35 550.86 641.76 535.68 647.48 C 531.93 648.83 527.90 648.41 524.00 648.47 C 503.31 648.45 482.62 648.46 461.92 648.41 C 455.69 648.32 450.24 651.71 444.49 653.62 C 416.59 663.18 387.59 670.15 358.05 671.60 C 335.65 673.41 313.09 672.08 290.85 669.14 C 266.35 665.21 242.19 658.78 219.14 649.57 C 214.94 647.98 210.41 648.44 206.02 648.41 C 174.67 648.47 143.31 648.44 111.95 648.44 C 103.66 648.28 95.14 649.14 87.10 646.66 C 81.83 645.07 76.78 641.64 74.72 636.36 C 56.95 592.79 39.25 549.19 21.35 505.67 C 18.20 497.58 16.80 487.99 21.01 480.00 C 24.53 473.13 31.89 469.48 38.97 467.34 C 25.19 432.83 17.02 396.08 14.98 358.97 C 10.53 279.10 35.16 197.68 84.30 134.43 C 108.88 102.04 139.93 74.67 174.77 53.77 M 301.87 41.53 C 262.78 45.99 224.84 59.27 191.04 79.33 C 194.48 81.74 197.76 84.44 200.44 87.70 C 207.83 96.63 213.82 106.58 219.82 116.46 C 233.72 106.43 249.67 99.03 266.55 95.81 C 292.79 90.60 320.14 93.73 345.40 102.08 C 349.45 86.25 354.30 70.24 363.66 56.64 C 366.86 51.92 371.16 47.42 376.89 46.02 C 381.58 44.80 386.47 46.89 389.75 50.24 C 399.37 59.88 405.60 72.30 410.52 84.86 C 417.81 103.57 422.41 123.21 425.67 142.99 C 440.66 150.35 452.41 163.56 458.88 178.86 C 466.59 197.06 468.79 217.31 466.72 236.89 C 464.96 255.40 456.22 273.12 442.69 285.87 C 444.10 295.39 448.66 303.99 451.93 312.94 C 453.68 317.60 455.15 322.57 458.55 326.36 C 472.02 341.15 484.01 357.26 494.64 374.20 C 516.09 408.28 532.26 445.63 542.79 484.48 C 543.50 487.87 546.40 489.95 548.77 492.18 C 557.98 500.86 564.49 511.90 569.87 523.24 C 610.41 468.55 631.72 400.04 629.67 332.01 C 628.45 286.08 616.83 240.44 595.79 199.58 C 579.54 168.05 557.69 139.39 531.54 115.42 C 493.63 80.58 446.39 55.77 395.91 45.35 C 365.04 39.23 333.12 36.96 301.87 41.53 M 376.10 66.01 C 372.85 69.35 370.84 73.65 369.09 77.91 C 364.62 89.22 361.93 101.13 359.60 113.04 C 373.62 121.74 386.56 132.09 398.65 143.31 C 402.79 143.25 406.93 143.28 411.07 143.24 C 408.91 130.04 405.92 116.96 402.09 104.14 C 398.63 92.87 394.70 81.59 388.36 71.58 C 386.56 68.85 384.61 65.91 381.52 64.55 C 379.62 63.71 377.45 64.60 376.10 66.01 M 157.56 102.55 C 115.14 136.16 82.56 181.81 63.64 232.46 C 35.39 307.41 38.09 393.38 70.98 466.42 C 116.21 466.44 161.45 466.44 206.68 466.41 C 209.07 457.26 211.46 448.12 213.78 438.95 C 211.71 436.53 210.06 433.60 207.36 431.84 C 202.97 430.69 198.38 430.83 193.96 429.86 C 176.01 426.28 159.31 416.47 147.71 402.27 C 132.92 384.53 125.40 360.99 126.98 337.97 C 128.19 318.96 135.80 300.58 147.66 285.76 C 138.15 280.85 130.47 272.41 126.90 262.28 C 121.95 248.22 122.79 232.63 127.31 218.58 C 132.19 203.31 144.73 190.83 159.84 185.63 C 164.65 184.85 165.35 179.19 167.87 175.85 C 165.43 156.36 164.35 136.51 167.15 116.99 C 168.52 107.27 171.13 97.65 175.54 88.85 C 169.56 93.43 163.42 97.80 157.56 102.55 M 182.64 109.43 C 179.34 125.50 179.04 142.29 182.39 158.37 C 190.29 147.41 199.15 137.18 208.25 127.21 C 203.74 117.97 198.59 108.97 192.10 100.97 C 191.07 99.60 189.57 98.74 188.04 98.05 C 184.63 100.88 183.50 105.29 182.64 109.43 M 230.18 123.21 C 205.03 139.00 185.94 163.29 174.00 190.28 C 175.46 191.20 176.93 192.12 178.41 193.01 C 188.63 175.03 203.82 160.06 221.42 149.30 C 241.39 137.20 264.37 128.62 288.01 129.50 C 314.36 130.54 339.35 142.58 358.82 159.98 C 363.70 152.29 371.53 146.86 380.07 143.93 C 381.76 143.73 380.76 141.62 379.82 141.12 C 359.82 121.93 333.47 109.52 305.91 106.50 C 279.78 103.63 252.61 109.41 230.18 123.21 M 205.76 167.76 C 195.69 176.19 186.90 186.66 182.37 199.13 C 173.19 223.36 174.14 249.99 177.92 275.21 C 168.26 284.28 159.47 294.46 153.17 306.18 C 145.63 320.12 141.82 336.30 143.65 352.13 C 145.53 367.65 151.94 382.83 162.74 394.26 C 173.51 405.53 188.19 412.39 203.32 415.50 C 193.12 399.07 191.99 378.40 196.82 360.01 C 189.06 356.82 181.57 352.43 176.13 345.93 C 173.39 342.60 171.32 338.30 171.92 333.89 C 172.77 328.71 177.09 324.67 181.96 323.11 C 189.98 320.39 198.60 320.44 206.97 320.77 C 218.03 321.46 229.07 323.22 239.64 326.60 C 245.82 328.66 252.05 331.58 256.32 336.67 C 258.72 339.46 260.22 343.33 259.18 347.01 C 257.83 351.87 253.27 354.89 248.94 356.90 C 235.32 362.80 220.01 363.90 205.41 361.97 C 201.64 375.42 200.31 390.36 205.77 403.55 C 209.53 412.86 218.42 419.32 227.96 421.77 C 242.44 425.44 257.73 423.68 271.92 419.62 C 289.50 414.72 306.06 405.94 319.65 393.72 C 333.09 381.63 344.51 365.87 346.82 347.52 C 343.26 347.14 338.85 347.68 336.33 344.59 C 334.16 342.17 336.54 338.74 339.10 337.85 C 347.67 334.36 358.19 337.98 363.42 345.45 C 365.20 347.96 364.85 351.66 362.56 353.74 C 359.85 352.34 357.56 350.26 355.05 348.56 C 352.88 355.88 350.66 363.28 346.79 369.92 C 338.17 385.02 324.83 396.64 311.32 407.26 C 290.67 423.54 264.01 431.42 237.85 430.51 C 244.06 435.19 251.20 438.82 258.97 439.94 C 278.77 442.89 299.27 438.94 317.12 430.06 C 323.05 427.23 328.54 423.60 334.14 420.19 C 336.53 418.85 339.09 417.23 341.95 417.61 C 344.84 417.95 347.47 419.28 350.15 420.35 C 340.97 427.28 331.17 433.33 321.72 439.86 C 328.70 446.20 334.22 453.92 339.34 461.78 C 349.34 450.41 357.82 437.79 365.66 424.86 C 361.16 422.58 356.18 419.74 354.53 414.63 C 353.31 409.56 356.05 404.76 358.36 400.45 C 362.50 393.19 365.87 385.49 370.39 378.45 C 373.47 374.10 379.39 373.99 384.16 374.66 C 399.41 350.15 406.42 320.89 405.13 292.14 C 398.14 292.22 391.14 292.67 384.16 292.21 C 379.75 291.91 376.32 288.73 373.41 285.71 C 363.08 274.80 357.15 260.64 352.57 246.54 C 344.32 221.47 346.05 193.69 355.45 169.18 C 337.54 150.79 313.01 138.06 287.06 137.31 C 257.32 136.37 228.18 148.63 205.76 167.76 M 390.07 153.28 C 386.43 155.09 384.12 158.84 382.04 162.22 C 376.33 172.90 374.18 185.06 373.02 197.00 C 370.86 222.70 376.59 249.45 391.03 271.02 C 394.78 276.41 398.60 282.08 404.41 285.46 C 404.39 281.63 403.84 277.78 404.35 273.97 C 406.27 270.83 410.45 272.03 413.40 272.56 C 414.06 276.21 414.59 279.88 415.33 283.52 C 430.02 279.96 442.13 268.06 446.38 253.62 C 452.21 234.30 452.87 213.29 447.51 193.80 C 443.16 178.56 433.93 163.51 419.19 156.54 C 410.08 152.84 399.77 151.08 390.07 153.28 M 367.47 166.56 C 360.15 178.34 357.55 192.36 356.85 206.03 C 356.15 228.02 361.31 250.45 372.97 269.23 C 376.23 274.39 379.90 279.50 384.95 283.06 C 387.61 284.88 391.01 284.53 394.07 284.73 C 377.66 265.30 368.37 240.25 367.12 214.92 C 366.09 195.12 368.60 174.58 378.13 156.92 C 374.11 159.54 369.99 162.36 367.47 166.56 M 164.59 200.38 C 154.12 223.26 156.64 249.51 162.74 273.21 C 164.50 273.22 166.25 273.24 168.01 273.27 C 164.73 252.15 163.78 230.18 169.62 209.41 C 170.63 206.22 169.23 203.02 168.19 200.04 C 166.99 200.15 165.79 200.27 164.59 200.38 M 142.83 215.89 C 136.35 228.57 135.84 243.75 139.84 257.27 C 142.25 265.26 149.23 270.99 156.80 273.90 C 151.16 250.54 148.98 225.36 157.13 202.30 C 151.31 205.48 145.78 209.80 142.83 215.89 M 416.18 292.72 C 415.44 302.78 415.57 312.91 413.79 322.88 C 418.80 315.95 423.60 308.82 427.41 301.15 C 429.21 297.80 429.11 293.87 429.24 290.18 C 424.83 290.73 420.53 291.83 416.18 292.72 M 419.20 334.98 C 415.66 340.18 411.01 344.76 408.89 350.81 C 406.62 356.62 404.90 362.66 402.16 368.29 C 408.17 364.70 415.17 362.86 422.18 363.23 C 431.21 352.38 436.85 339.26 441.93 326.22 C 439.51 321.41 437.10 316.60 434.80 311.73 C 429.82 319.61 424.90 327.57 419.20 334.98 M 209.37 328.68 C 207.08 329.27 204.37 330.37 203.83 332.97 C 204.30 336.07 206.98 338.16 209.60 339.50 C 217.36 343.37 226.35 344.78 234.91 343.38 C 237.53 342.92 240.45 341.77 241.44 339.08 C 241.19 335.35 237.57 333.15 234.52 331.72 C 226.68 328.39 217.79 326.59 209.37 328.68 M 449.21 338.49 C 444.43 349.63 439.24 360.62 433.36 371.23 C 437.89 377.27 441.75 384.20 442.33 391.88 C 443.00 398.38 440.81 404.74 438.00 410.51 C 438.47 403.22 438.09 395.57 434.96 388.86 C 432.42 383.25 426.96 379.46 421.16 377.83 C 412.49 375.34 402.76 378.31 396.44 384.61 C 395.29 385.67 395.26 387.35 394.83 388.76 C 393.08 397.58 387.56 404.90 383.82 412.90 C 381.83 417.20 378.74 421.04 374.63 423.47 C 372.34 424.55 371.61 427.10 370.44 429.14 C 361.58 445.72 351.16 461.55 338.62 475.59 C 336.62 472.45 334.52 469.37 332.45 466.28 C 331.79 470.31 331.03 474.35 329.64 478.21 C 333.81 491.79 338.22 505.30 342.77 518.76 C 347.96 499.02 352.35 479.08 357.73 459.40 C 358.87 464.48 360.34 469.72 359.30 474.96 C 357.37 484.84 355.19 494.66 353.12 504.52 C 369.19 500.70 386.49 503.15 401.03 510.93 C 405.55 502.58 410.31 493.80 418.27 488.24 C 420.76 486.37 423.87 485.49 426.29 483.53 C 429.30 476.19 429.70 467.98 432.87 460.73 C 433.53 468.42 434.19 476.11 434.65 483.82 C 441.14 483.43 447.78 483.67 453.98 485.82 C 468.18 490.54 479.70 501.10 488.19 513.16 C 504.20 509.83 518.49 498.72 525.87 484.20 C 522.69 469.78 517.67 455.83 512.05 442.20 C 496.51 404.71 474.99 369.80 449.21 338.49 M 375.65 380.42 C 371.35 389.09 366.55 397.49 362.17 406.11 C 360.31 409.38 361.24 413.33 362.88 416.48 C 363.40 413.09 363.58 409.54 365.26 406.47 C 369.26 399.05 373.19 391.58 377.21 384.16 C 378.80 381.24 382.58 381.27 385.37 380.30 C 382.13 380.00 378.87 379.98 375.65 380.42 M 230.73 443.99 C 228.48 452.75 226.23 461.51 224.05 470.29 C 237.46 470.30 250.86 470.31 264.27 470.29 C 265.37 464.19 266.52 458.11 267.62 452.01 C 255.06 450.80 242.62 448.22 230.73 443.99 M 318.42 449.79 C 313.79 455.39 309.18 461.02 304.51 466.60 C 306.31 461.78 308.11 456.95 310.19 452.24 C 307.36 453.93 304.46 456.15 300.97 455.91 C 296.51 455.71 293.31 452.00 289.06 451.03 C 292.17 457.19 296.02 462.94 299.39 468.97 C 295.85 466.01 292.33 463.03 288.74 460.14 C 287.57 464.03 285.11 469.03 288.30 472.57 C 292.84 476.24 297.85 479.58 300.91 484.71 C 307.45 485.52 314.79 484.46 319.59 479.56 C 324.66 474.46 325.50 466.69 324.70 459.87 C 324.30 455.71 321.11 452.68 318.42 449.79 M 273.90 470.23 C 275.88 470.25 277.87 470.29 279.86 470.32 C 279.95 465.61 280.85 460.98 282.21 456.49 C 277.33 459.38 274.63 464.73 273.90 470.23 M 48.53 484.72 C 44.20 485.32 39.61 487.51 37.79 491.72 C 36.23 495.48 37.48 499.63 38.85 503.24 C 54.93 543.20 70.98 583.18 87.06 623.14 C 89.62 629.86 97.44 632.30 104.04 632.15 C 175.04 632.15 246.03 632.16 317.03 632.18 C 320.74 632.28 324.81 630.90 326.73 627.52 C 328.51 624.25 328.01 620.29 327.11 616.84 C 315.92 577.58 304.73 538.33 293.57 499.08 C 292.42 494.10 288.62 490.13 284.12 487.92 C 275.45 483.52 265.46 484.24 256.04 484.42 C 201.36 484.44 146.68 484.47 92.00 484.44 C 77.51 484.62 62.99 484.06 48.53 484.72 M 322.90 488.50 C 317.36 491.91 310.95 493.72 304.45 493.85 C 311.76 519.87 319.02 545.90 326.26 571.94 C 330.14 559.72 333.91 547.44 337.53 535.14 C 332.91 519.52 327.63 504.10 322.90 488.50 M 430.86 496.96 C 423.33 499.11 417.12 504.65 413.30 511.39 C 405.64 524.16 404.05 539.47 404.23 554.08 C 404.10 567.70 407.63 581.07 412.46 593.71 C 420.44 593.47 428.90 593.73 436.01 597.80 C 440.31 600.15 443.07 604.35 445.50 608.46 C 439.41 604.59 432.25 602.37 425.00 602.71 C 413.42 602.72 400.82 605.46 392.82 614.49 C 411.21 614.97 429.61 614.57 448.00 614.69 C 454.15 614.75 460.68 616.37 465.17 620.82 C 468.45 623.91 469.90 628.30 471.37 632.44 C 489.57 632.43 507.77 632.43 525.97 632.49 C 528.90 632.57 531.84 631.93 534.41 630.48 C 544.35 625.06 551.59 615.51 555.36 604.94 C 558.90 595.72 559.57 585.78 560.22 576.03 C 560.94 561.27 559.96 546.20 555.12 532.15 C 550.80 518.51 541.73 506.62 530.25 498.18 C 520.57 509.37 507.34 517.25 493.12 521.14 C 495.68 528.22 497.45 535.62 497.88 543.15 C 494.30 541.67 490.64 539.38 489.46 535.46 C 483.61 519.23 470.87 505.34 454.64 499.18 C 447.16 496.26 438.72 494.48 430.86 496.96 M 352.77 513.19 C 350.46 523.52 348.45 533.92 346.58 544.34 C 348.64 543.77 350.70 543.20 352.76 542.63 C 355.46 537.07 358.15 531.51 360.90 525.98 C 363.92 531.94 366.93 537.90 370.01 543.83 C 377.39 544.64 384.63 546.49 391.49 549.33 C 392.07 538.59 394.15 527.94 397.79 517.81 C 383.96 511.01 367.68 508.94 352.77 513.19 M 608.22 521.99 C 608.46 531.37 606.48 541.10 600.97 548.85 C 594.53 558.21 584.09 563.81 573.57 567.39 C 573.52 577.66 572.67 587.96 570.54 598.02 C 579.32 595.74 587.90 592.50 595.67 587.78 C 606.94 580.97 616.65 570.71 620.75 558.00 C 624.59 546.79 624.20 534.57 621.50 523.15 C 620.58 519.40 618.95 515.63 615.99 513.04 C 614.63 511.91 612.78 510.93 611.00 511.64 C 608.08 514.18 608.32 518.47 608.22 521.99 M 360.61 539.28 C 359.11 543.11 357.73 546.98 356.38 550.87 C 352.23 552.23 348.00 553.33 343.79 554.50 C 342.14 561.07 340.47 567.64 338.78 574.21 C 348.08 574.24 357.88 575.17 365.96 580.16 C 371.25 583.52 373.86 589.57 375.23 595.45 C 370.80 591.95 366.44 588.05 360.93 586.35 C 351.33 583.07 340.86 585.08 331.71 588.84 C 334.10 597.48 336.64 606.09 339.16 614.70 C 352.20 614.72 365.23 614.71 378.26 614.70 C 382.90 605.88 391.40 599.64 400.77 596.60 C 395.29 584.26 392.54 570.86 391.62 557.44 C 383.63 553.69 374.98 551.50 366.20 550.68 C 364.34 546.88 362.44 543.09 360.61 539.28 M 342.99 623.91 C 343.83 627.78 344.75 631.64 345.65 635.50 C 384.10 635.46 422.55 635.63 461.00 635.36 C 459.91 630.20 457.40 623.23 451.09 623.14 C 429.38 622.75 407.68 623.40 385.97 623.36 C 371.65 623.87 357.31 623.22 342.99 623.91 Z"></path>
<path fill="#000000" opacity="1.00" d=" M 281.21 244.11 C 289.29 241.88 297.85 244.76 304.53 249.38 C 308.48 252.15 312.10 256.06 312.89 260.98 C 313.56 264.25 309.19 267.58 306.37 265.47 C 303.20 262.70 301.00 258.80 297.16 256.82 C 290.76 253.07 281.77 255.80 278.21 262.21 C 276.25 265.17 277.80 269.06 276.14 272.09 C 272.85 274.03 266.20 274.53 264.75 270.02 C 262.39 258.84 270.42 247.12 281.21 244.11 Z"></path>
<path fill="#000000" opacity="1.00" d=" M 186.96 247.94 C 194.85 243.17 206.43 245.80 211.13 253.84 C 213.67 257.95 214.30 262.86 214.40 267.60 C 211.20 268.86 207.74 268.65 204.39 268.41 C 204.17 264.95 204.37 261.32 203.01 258.06 C 201.09 254.04 195.68 253.18 191.91 254.88 C 188.79 256.40 187.85 260.06 185.62 262.46 C 183.80 263.26 181.15 262.54 180.45 260.58 C 179.79 255.56 182.66 250.47 186.96 247.94 Z"></path>
<path fill="#000000" opacity="1.00" d=" M 175.26 515.97 C 180.94 520.98 185.38 527.63 186.73 535.17 C 187.02 536.73 187.43 539.09 185.27 539.48 C 177.32 534.95 174.36 524.67 175.26 515.97 Z"></path>
<path fill="#000000" opacity="1.00" d=" M 187.28 539.97 C 188.67 530.19 196.08 521.79 205.48 518.87 C 204.82 528.71 198.07 539.63 187.28 539.97 Z"></path>
<path fill="#000000" opacity="1.00" d=" M 168.55 544.30 C 175.21 539.99 183.83 538.56 191.20 541.90 C 186.25 544.39 181.40 547.10 176.86 550.30 C 174.09 548.29 171.31 546.31 168.55 544.30 Z"></path>
<path fill="#000000" opacity="1.00" d=" M 185.96 558.05 C 190.25 555.48 194.77 553.30 199.46 551.55 C 201.90 558.90 201.54 566.93 199.17 574.26 C 194.86 568.78 190.71 563.16 185.96 558.05 Z"></path>
<path fill="#000000" opacity="1.00" d=" M 156.44 573.52 C 156.19 566.64 157.60 559.73 160.60 553.53 C 163.17 555.15 165.72 556.81 168.23 558.51 C 163.98 563.25 160.28 568.45 156.44 573.52 Z"></path>
<path fill="#000000" opacity="1.00" d=" M 162.65 586.53 C 166.92 579.42 171.22 572.20 177.03 566.22 C 183.00 571.59 187.61 578.26 191.63 585.18 C 186.80 588.79 181.16 592.08 174.91 591.76 C 170.27 591.80 166.30 589.07 162.65 586.53 Z"></path>
</g>
<g id="#ffffffff">
<path fill="#ffffff" opacity="1.00" d=" M 301.87 41.53 C 333.12 36.96 365.04 39.23 395.91 45.35 C 446.39 55.77 493.63 80.58 531.54 115.42 C 557.69 139.39 579.54 168.05 595.79 199.58 C 616.83 240.44 628.45 286.08 629.67 332.01 C 631.72 400.04 610.41 468.55 569.87 523.24 C 564.49 511.90 557.98 500.86 548.77 492.18 C 546.40 489.95 543.50 487.87 542.79 484.48 C 532.26 445.63 516.09 408.28 494.64 374.20 C 484.01 357.26 472.02 341.15 458.55 326.36 C 455.15 322.57 453.68 317.60 451.93 312.94 C 448.66 303.99 444.10 295.39 442.69 285.87 C 456.22 273.12 464.96 255.40 466.72 236.89 C 468.79 217.31 466.59 197.06 458.88 178.86 C 452.41 163.56 440.66 150.35 425.67 142.99 C 422.41 123.21 417.81 103.57 410.52 84.86 C 405.60 72.30 399.37 59.88 389.75 50.24 C 386.47 46.89 381.58 44.80 376.89 46.02 C 371.16 47.42 366.86 51.92 363.66 56.64 C 354.30 70.24 349.45 86.25 345.40 102.08 C 320.14 93.73 292.79 90.60 266.55 95.81 C 249.67 99.03 233.72 106.43 219.82 116.46 C 213.82 106.58 207.83 96.63 200.44 87.70 C 197.76 84.44 194.48 81.74 191.04 79.33 C 224.84 59.27 262.78 45.99 301.87 41.53 Z"></path>
<path fill="#ffffff" opacity="1.00" d=" M 376.10 66.01 C 377.45 64.60 379.62 63.71 381.52 64.55 C 384.61 65.91 386.56 68.85 388.36 71.58 C 394.70 81.59 398.63 92.87 402.09 104.14 C 405.92 116.96 408.91 130.04 411.07 143.24 C 406.93 143.28 402.79 143.25 398.65 143.31 C 386.56 132.09 373.62 121.74 359.60 113.04 C 361.93 101.13 364.62 89.22 369.09 77.91 C 370.84 73.65 372.85 69.35 376.10 66.01 Z"></path>
<path fill="#ffffff" opacity="1.00" d=" M 157.56 102.55 C 163.42 97.80 169.56 93.43 175.54 88.85 C 171.13 97.65 168.52 107.27 167.15 116.99 C 164.35 136.51 165.43 156.36 167.87 175.85 C 165.35 179.19 164.65 184.85 159.84 185.63 C 144.73 190.83 132.19 203.31 127.31 218.58 C 122.79 232.63 121.95 248.22 126.90 262.28 C 130.47 272.41 138.15 280.85 147.66 285.76 C 135.80 300.58 128.19 318.96 126.98 337.97 C 125.40 360.99 132.92 384.53 147.71 402.27 C 159.31 416.47 176.01 426.28 193.96 429.86 C 198.38 430.83 202.97 430.69 207.36 431.84 C 210.06 433.60 211.71 436.53 213.78 438.95 C 211.46 448.12 209.07 457.26 206.68 466.41 C 161.45 466.44 116.21 466.44 70.98 466.42 C 38.09 393.38 35.39 307.41 63.64 232.46 C 82.56 181.81 115.14 136.16 157.56 102.55 Z"></path>
<path fill="#ffffff" opacity="1.00" d=" M 182.64 109.43 C 183.50 105.29 184.63 100.88 188.04 98.05 C 189.57 98.74 191.07 99.60 192.10 100.97 C 198.59 108.97 203.74 117.97 208.25 127.21 C 199.15 137.18 190.29 147.41 182.39 158.37 C 179.04 142.29 179.34 125.50 182.64 109.43 Z"></path>
<path fill="#ffffff" opacity="1.00" d=" M 230.18 123.21 C 252.61 109.41 279.78 103.63 305.91 106.50 C 333.47 109.52 359.82 121.93 379.82 141.12 C 380.76 141.62 381.76 143.73 380.07 143.93 C 371.53 146.86 363.70 152.29 358.82 159.98 C 339.35 142.58 314.36 130.54 288.01 129.50 C 264.37 128.62 241.39 137.20 221.42 149.30 C 203.82 160.06 188.63 175.03 178.41 193.01 C 176.93 192.12 175.46 191.20 174.00 190.28 C 185.94 163.29 205.03 139.00 230.18 123.21 Z"></path>
<path fill="#ffffff" opacity="1.00" d=" M 205.76 167.76 C 228.18 148.63 257.32 136.37 287.06 137.31 C 313.01 138.06 337.54 150.79 355.45 169.18 C 346.05 193.69 344.32 221.47 352.57 246.54 C 357.15 260.64 363.08 274.80 373.41 285.71 C 376.32 288.73 379.75 291.91 384.16 292.21 C 391.14 292.67 398.14 292.22 405.13 292.14 C 406.42 320.89 399.41 350.15 384.16 374.66 C 379.39 373.99 373.47 374.10 370.39 378.45 C 365.87 385.49 362.50 393.19 358.36 400.45 C 356.05 404.76 353.31 409.56 354.53 414.63 C 356.18 419.74 361.16 422.58 365.66 424.86 C 357.82 437.79 349.34 450.41 339.34 461.78 C 334.22 453.92 328.70 446.20 321.72 439.86 C 331.17 433.33 340.97 427.28 350.15 420.35 C 347.47 419.28 344.84 417.95 341.95 417.61 C 339.09 417.23 336.53 418.85 334.14 420.19 C 328.54 423.60 323.05 427.23 317.12 430.06 C 299.27 438.94 278.77 442.89 258.97 439.94 C 251.20 438.82 244.06 435.19 237.85 430.51 C 264.01 431.42 290.67 423.54 311.32 407.26 C 324.83 396.64 338.17 385.02 346.79 369.92 C 350.66 363.28 352.88 355.88 355.05 348.56 C 357.56 350.26 359.85 352.34 362.56 353.74 C 364.85 351.66 365.20 347.96 363.42 345.45 C 358.19 337.98 347.67 334.36 339.10 337.85 C 336.54 338.74 334.16 342.17 336.33 344.59 C 338.85 347.68 343.26 347.14 346.82 347.52 C 344.51 365.87 333.09 381.63 319.65 393.72 C 306.06 405.94 289.50 414.72 271.92 419.62 C 257.73 423.68 242.44 425.44 227.96 421.77 C 218.42 419.32 209.53 412.86 205.77 403.55 C 200.31 390.36 201.64 375.42 205.41 361.97 C 220.01 363.90 235.32 362.80 248.94 356.90 C 253.27 354.89 257.83 351.87 259.18 347.01 C 260.22 343.33 258.72 339.46 256.32 336.67 C 252.05 331.58 245.82 328.66 239.64 326.60 C 229.07 323.22 218.03 321.46 206.97 320.77 C 198.60 320.44 189.98 320.39 181.96 323.11 C 177.09 324.67 172.77 328.71 171.92 333.89 C 171.32 338.30 173.39 342.60 176.13 345.93 C 181.57 352.43 189.06 356.82 196.82 360.01 C 191.99 378.40 193.12 399.07 203.32 415.50 C 188.19 412.39 173.51 405.53 162.74 394.26 C 151.94 382.83 145.53 367.65 143.65 352.13 C 141.82 336.30 145.63 320.12 153.17 306.18 C 159.47 294.46 168.26 284.28 177.92 275.21 C 174.14 249.99 173.19 223.36 182.37 199.13 C 186.90 186.66 195.69 176.19 205.76 167.76 M 281.21 244.11 C 270.42 247.12 262.39 258.84 264.75 270.02 C 266.20 274.53 272.85 274.03 276.14 272.09 C 277.80 269.06 276.25 265.17 278.21 262.21 C 281.77 255.80 290.76 253.07 297.16 256.82 C 301.00 258.80 303.20 262.70 306.37 265.47 C 309.19 267.58 313.56 264.25 312.89 260.98 C 312.10 256.06 308.48 252.15 304.53 249.38 C 297.85 244.76 289.29 241.88 281.21 244.11 M 186.96 247.94 C 182.66 250.47 179.79 255.56 180.45 260.58 C 181.15 262.54 183.80 263.26 185.62 262.46 C 187.85 260.06 188.79 256.40 191.91 254.88 C 195.68 253.18 201.09 254.04 203.01 258.06 C 204.37 261.32 204.17 264.95 204.39 268.41 C 207.74 268.65 211.20 268.86 214.40 267.60 C 214.30 262.86 213.67 257.95 211.13 253.84 C 206.43 245.80 194.85 243.17 186.96 247.94 Z"></path>
<path fill="#ffffff" opacity="1.00" d=" M 390.07 153.28 C 399.77 151.08 410.08 152.84 419.19 156.54 C 433.93 163.51 443.16 178.56 447.51 193.80 C 452.87 213.29 452.21 234.30 446.38 253.62 C 442.13 268.06 430.02 279.96 415.33 283.52 C 414.59 279.88 414.06 276.21 413.40 272.56 C 410.45 272.03 406.27 270.83 404.35 273.97 C 403.84 277.78 404.39 281.63 404.41 285.46 C 398.60 282.08 394.78 276.41 391.03 271.02 C 376.59 249.45 370.86 222.70 373.02 197.00 C 374.18 185.06 376.33 172.90 382.04 162.22 C 384.12 158.84 386.43 155.09 390.07 153.28 Z"></path>
<path fill="#ffffff" opacity="1.00" d=" M 367.47 166.56 C 369.99 162.36 374.11 159.54 378.13 156.92 C 368.60 174.58 366.09 195.12 367.12 214.92 C 368.37 240.25 377.66 265.30 394.07 284.73 C 391.01 284.53 387.61 284.88 384.95 283.06 C 379.90 279.50 376.23 274.39 372.97 269.23 C 361.31 250.45 356.15 228.02 356.85 206.03 C 357.55 192.36 360.15 178.34 367.47 166.56 Z"></path>
<path fill="#ffffff" opacity="1.00" d=" M 164.59 200.38 C 165.79 200.27 166.99 200.15 168.19 200.04 C 169.23 203.02 170.63 206.22 169.62 209.41 C 163.78 230.18 164.73 252.15 168.01 273.27 C 166.25 273.24 164.50 273.22 162.74 273.21 C 156.64 249.51 154.12 223.26 164.59 200.38 Z"></path>
<path fill="#ffffff" opacity="1.00" d=" M 142.83 215.89 C 145.78 209.80 151.31 205.48 157.13 202.30 C 148.98 225.36 151.16 250.54 156.80 273.90 C 149.23 270.99 142.25 265.26 139.84 257.27 C 135.84 243.75 136.35 228.57 142.83 215.89 Z"></path>
<path fill="#ffffff" opacity="1.00" d=" M 416.18 292.72 C 420.53 291.83 424.83 290.73 429.24 290.18 C 429.11 293.87 429.21 297.80 427.41 301.15 C 423.60 308.82 418.80 315.95 413.79 322.88 C 415.57 312.91 415.44 302.78 416.18 292.72 Z"></path>
<path fill="#ffffff" opacity="1.00" d=" M 419.20 334.98 C 424.90 327.57 429.82 319.61 434.80 311.73 C 437.10 316.60 439.51 321.41 441.93 326.22 C 436.85 339.26 431.21 352.38 422.18 363.23 C 415.17 362.86 408.17 364.70 402.16 368.29 C 404.90 362.66 406.62 356.62 408.89 350.81 C 411.01 344.76 415.66 340.18 419.20 334.98 Z"></path>
<path fill="#ffffff" opacity="1.00" d=" M 209.37 328.68 C 217.79 326.59 226.68 328.39 234.52 331.72 C 237.57 333.15 241.19 335.35 241.44 339.08 C 240.45 341.77 237.53 342.92 234.91 343.38 C 226.35 344.78 217.36 343.37 209.60 339.50 C 206.98 338.16 204.30 336.07 203.83 332.97 C 204.37 330.37 207.08 329.27 209.37 328.68 Z"></path>
<path fill="#ffffff" opacity="1.00" d=" M 449.21 338.49 C 474.99 369.80 496.51 404.71 512.05 442.20 C 517.67 455.83 522.69 469.78 525.87 484.20 C 518.49 498.72 504.20 509.83 488.19 513.16 C 479.70 501.10 468.18 490.54 453.98 485.82 C 447.78 483.67 441.14 483.43 434.65 483.82 C 434.19 476.11 433.53 468.42 432.87 460.73 C 429.70 467.98 429.30 476.19 426.29 483.53 C 423.87 485.49 420.76 486.37 418.27 488.24 C 410.31 493.80 405.55 502.58 401.03 510.93 C 386.49 503.15 369.19 500.70 353.12 504.52 C 355.19 494.66 357.37 484.84 359.30 474.96 C 360.34 469.72 358.87 464.48 357.73 459.40 C 352.35 479.08 347.96 499.02 342.77 518.76 C 338.22 505.30 333.81 491.79 329.64 478.21 C 331.03 474.35 331.79 470.31 332.45 466.28 C 334.52 469.37 336.62 472.45 338.62 475.59 C 351.16 461.55 361.58 445.72 370.44 429.14 C 371.61 427.10 372.34 424.55 374.63 423.47 C 378.74 421.04 381.83 417.20 383.82 412.90 C 387.56 404.90 393.08 397.58 394.83 388.76 C 395.26 387.35 395.29 385.67 396.44 384.61 C 402.76 378.31 412.49 375.34 421.16 377.83 C 426.96 379.46 432.42 383.25 434.96 388.86 C 438.09 395.57 438.47 403.22 438.00 410.51 C 440.81 404.74 443.00 398.38 442.33 391.88 C 441.75 384.20 437.89 377.27 433.36 371.23 C 439.24 360.62 444.43 349.63 449.21 338.49 Z"></path>
<path fill="#ffffff" opacity="1.00" d=" M 375.65 380.42 C 378.87 379.98 382.13 380.00 385.37 380.30 C 382.58 381.27 378.80 381.24 377.21 384.16 C 373.19 391.58 369.26 399.05 365.26 406.47 C 363.58 409.54 363.40 413.09 362.88 416.48 C 361.24 413.33 360.31 409.38 362.17 406.11 C 366.55 397.49 371.35 389.09 375.65 380.42 Z"></path>
<path fill="#ffffff" opacity="1.00" d=" M 230.73 443.99 C 242.62 448.22 255.06 450.80 267.62 452.01 C 266.52 458.11 265.37 464.19 264.27 470.29 C 250.86 470.31 237.46 470.30 224.05 470.29 C 226.23 461.51 228.48 452.75 230.73 443.99 Z"></path>
<path fill="#ffffff" opacity="1.00" d=" M 318.42 449.79 C 321.11 452.68 324.30 455.71 324.70 459.87 C 325.50 466.69 324.66 474.46 319.59 479.56 C 314.79 484.46 307.45 485.52 300.91 484.71 C 297.85 479.58 292.84 476.24 288.30 472.57 C 285.11 469.03 287.57 464.03 288.74 460.14 C 292.33 463.03 295.85 466.01 299.39 468.97 C 296.02 462.94 292.17 457.19 289.06 451.03 C 293.31 452.00 296.51 455.71 300.97 455.91 C 304.46 456.15 307.36 453.93 310.19 452.24 C 308.11 456.95 306.31 461.78 304.51 466.60 C 309.18 461.02 313.79 455.39 318.42 449.79 Z"></path>
<path fill="#ffffff" opacity="1.00" d=" M 273.90 470.23 C 274.63 464.73 277.33 459.38 282.21 456.49 C 280.85 460.98 279.95 465.61 279.86 470.32 C 277.87 470.29 275.88 470.25 273.90 470.23 Z"></path>
<path fill="#ffffff" opacity="1.00" d=" M 48.53 484.72 C 62.99 484.06 77.51 484.62 92.00 484.44 C 146.68 484.47 201.36 484.44 256.04 484.42 C 265.46 484.24 275.45 483.52 284.12 487.92 C 288.62 490.13 292.42 494.10 293.57 499.08 C 304.73 538.33 315.92 577.58 327.11 616.84 C 328.01 620.29 328.51 624.25 326.73 627.52 C 324.81 630.90 320.74 632.28 317.03 632.18 C 246.03 632.16 175.04 632.15 104.04 632.15 C 97.44 632.30 89.62 629.86 87.06 623.14 C 70.98 583.18 54.93 543.20 38.85 503.24 C 37.48 499.63 36.23 495.48 37.79 491.72 C 39.61 487.51 44.20 485.32 48.53 484.72 M 175.26 515.97 C 174.36 524.67 177.32 534.95 185.27 539.48 C 187.43 539.09 187.02 536.73 186.73 535.17 C 185.38 527.63 180.94 520.98 175.26 515.97 M 187.28 539.97 C 198.07 539.63 204.82 528.71 205.48 518.87 C 196.08 521.79 188.67 530.19 187.28 539.97 M 168.55 544.30 C 171.31 546.31 174.09 548.29 176.86 550.30 C 181.40 547.10 186.25 544.39 191.20 541.90 C 183.83 538.56 175.21 539.99 168.55 544.30 M 185.96 558.05 C 190.71 563.16 194.86 568.78 199.17 574.26 C 201.54 566.93 201.90 558.90 199.46 551.55 C 194.77 553.30 190.25 555.48 185.96 558.05 M 156.44 573.52 C 160.28 568.45 163.98 563.25 168.23 558.51 C 165.72 556.81 163.17 555.15 160.60 553.53 C 157.60 559.73 156.19 566.64 156.44 573.52 M 162.65 586.53 C 166.30 589.07 170.27 591.80 174.91 591.76 C 181.16 592.08 186.80 588.79 191.63 585.18 C 187.61 578.26 183.00 571.59 177.03 566.22 C 171.22 572.20 166.92 579.42 162.65 586.53 Z"></path>
<path fill="#ffffff" opacity="1.00" d=" M 322.90 488.50 C 327.63 504.10 332.91 519.52 337.53 535.14 C 333.91 547.44 330.14 559.72 326.26 571.94 C 319.02 545.90 311.76 519.87 304.45 493.85 C 310.95 493.72 317.36 491.91 322.90 488.50 Z"></path>
<path fill="#ffffff" opacity="1.00" d=" M 430.86 496.96 C 438.72 494.48 447.16 496.26 454.64 499.18 C 470.87 505.34 483.61 519.23 489.46 535.46 C 490.64 539.38 494.30 541.67 497.88 543.15 C 497.45 535.62 495.68 528.22 493.12 521.14 C 507.34 517.25 520.57 509.37 530.25 498.18 C 541.73 506.62 550.80 518.51 555.12 532.15 C 559.96 546.20 560.94 561.27 560.22 576.03 C 559.57 585.78 558.90 595.72 555.36 604.94 C 551.59 615.51 544.35 625.06 534.41 630.48 C 531.84 631.93 528.90 632.57 525.97 632.49 C 507.77 632.43 489.57 632.43 471.37 632.44 C 469.90 628.30 468.45 623.91 465.17 620.82 C 460.68 616.37 454.15 614.75 448.00 614.69 C 429.61 614.57 411.21 614.97 392.82 614.49 C 400.82 605.46 413.42 602.72 425.00 602.71 C 432.25 602.37 439.41 604.59 445.50 608.46 C 443.07 604.35 440.31 600.15 436.01 597.80 C 428.90 593.73 420.44 593.47 412.46 593.71 C 407.63 581.07 404.10 567.70 404.23 554.08 C 404.05 539.47 405.64 524.16 413.30 511.39 C 417.12 504.65 423.33 499.11 430.86 496.96 Z"></path>
<path fill="#ffffff" opacity="1.00" d=" M 352.77 513.19 C 367.68 508.94 383.96 511.01 397.79 517.81 C 394.15 527.94 392.07 538.59 391.49 549.33 C 384.63 546.49 377.39 544.64 370.01 543.83 C 366.93 537.90 363.92 531.94 360.90 525.98 C 358.15 531.51 355.46 537.07 352.76 542.63 C 350.70 543.20 348.64 543.77 346.58 544.34 C 348.45 533.92 350.46 523.52 352.77 513.19 Z"></path>
<path fill="#ffffff" opacity="1.00" d=" M 608.22 521.99 C 608.32 518.47 608.08 514.18 611.00 511.64 C 612.78 510.93 614.63 511.91 615.99 513.04 C 618.95 515.63 620.58 519.40 621.50 523.15 C 624.20 534.57 624.59 546.79 620.75 558.00 C 616.65 570.71 606.94 580.97 595.67 587.78 C 587.90 592.50 579.32 595.74 570.54 598.02 C 572.67 587.96 573.52 577.66 573.57 567.39 C 584.09 563.81 594.53 558.21 600.97 548.85 C 606.48 541.10 608.46 531.37 608.22 521.99 Z"></path>
<path fill="#ffffff" opacity="1.00" d=" M 360.61 539.28 C 362.44 543.09 364.34 546.88 366.20 550.68 C 374.98 551.50 383.63 553.69 391.62 557.44 C 392.54 570.86 395.29 584.26 400.77 596.60 C 391.40 599.64 382.90 605.88 378.26 614.70 C 365.23 614.71 352.20 614.72 339.16 614.70 C 336.64 606.09 334.10 597.48 331.71 588.84 C 340.86 585.08 351.33 583.07 360.93 586.35 C 366.44 588.05 370.80 591.95 375.23 595.45 C 373.86 589.57 371.25 583.52 365.96 580.16 C 357.88 575.17 348.08 574.24 338.78 574.21 C 340.47 567.64 342.14 561.07 343.79 554.50 C 348.00 553.33 352.23 552.23 356.38 550.87 C 357.73 546.98 359.11 543.11 360.61 539.28 Z"></path>
<path fill="#ffffff" opacity="1.00" d=" M 342.99 623.91 C 357.31 623.22 371.65 623.87 385.97 623.36 C 407.68 623.40 429.38 622.75 451.09 623.14 C 457.40 623.23 459.91 630.20 461.00 635.36 C 422.55 635.63 384.10 635.46 345.65 635.50 C 344.75 631.64 343.83 627.78 342.99 623.91 Z"></path>
</g>
</svg></svg></g></svg>